<svg width="37" height="37" viewBox="0 0 37 37" fill="none" xmlns="http://www.w3.org/2000/svg">
<path d="M24.7563 3.5H12.1863C6.72627 3.5 3.47127 6.755 3.47127 12.215L3.47127 24.77C3.47127 30.245 6.72627 33.5 12.1863 33.5H24.7413C30.2013 33.5 33.4563 30.245 33.4563 24.785L33.4563 12.215C33.4713 6.755 30.2163 3.5 24.7563 3.5ZM25.6413 15.05L17.1363 23.555C16.9263 23.765 16.6413 23.885 16.3413 23.885C16.0413 23.885 15.7563 23.765 15.5463 23.555L11.3013 19.31C10.8663 18.875 10.8663 18.155 11.3013 17.72C11.7363 17.285 12.4563 17.285 12.8913 17.72L16.3413 21.17L24.0513 13.46C24.4863 13.025 25.2063 13.025 25.6413 13.46C26.0763 13.895 26.0763 14.6 25.6413 15.05Z" fill="#469D3E"/>
</svg>
